# xmcd
#
# Track frame offsets:
#	150
#	16140
#	30562
#	58072
#	87867
#
# Disc length: 1720 seconds
#
# Revision: 7
# Processed by: cddbd v1.5.2PL0 Copyright (c) Steve Scherf et al.
# Submitted via: EasyCDDAExtractor 15.3.0.1
#
DISCID=3106b605
DTITLE=P!nk - Don't Let Me Get Me
DYEAR=2001
DGENRE=Pop
TTITLE0=Don't Let Me Get Me (Radio Mix)
TTITLE1=Don't Let Me Get Me (John Shanks Remix)
TTITLE2=Don't Let Me Get Me (Maurice's Nu Soul Mix)
TTITLE3=Get The Party Started - Sweet Dreams (feat. Redman)
TTITLE4=Don't Let Me Get Me (Video)
EXTD=
EXTT0=
EXTT1=
EXTT2=
EXTT3=
EXTT4=
PLAYORDER=
